# xmcd
#
# Track frame offsets: 
#        150
#        15119
#        26869
#        41139
#        53079
#        63577
#        76498
#        88557
#        102237
#        114941
#        122519
#        140308
#        153890
#        170030
#        183724
#        196308
#        208145
#        220357
#        234216
#        244418
#        261914
#        274527
#        286995
#
# Disc length: 4004 seconds
#
# Revision: 0
# Processed by: cddbd v1.5.2PL0 Copyright (c) Steve Scherf et al.
# Submitted via: ExactAudioCopy v1.3
#
DISCID=470fa217
DTITLE=Johnny Adams - Heart and Soul +12
DYEAR=1969
DGENRE=Soul
TTITLE0=Georgia Mountain Dew
TTITLE1=In a Moment of Weakness
TTITLE2=Real Live Living Hurtin' Man
TTITLE3=Lonely Man
TTITLE4=I Won't Cry
TTITLE5=Release Me
TTITLE6=Proud Woman
TTITLE7=I Can't Be All Bad
TTITLE8=A Losing Battle
TTITLE9=Living On Your Love
TTITLE10=Reconsider Me
TTITLE11=You Made a New Man Out of Me
TTITLE12=If I Could See You One More Time
TTITLE13=I Won't Cry (1970 Remake)
TTITLE14=I Want to Walk Through This Life With You
TTITLE15=I Don't Worry Myself
TTITLE16=Kiss the Hurt Away
TTITLE17=Born to Love You
TTITLE18=You're a Bad Habit Baby
TTITLE19=Let Me Be Myself
TTITLE20=Why Not Give Me a Chance
TTITLE21=I Have No One
TTITLE22=You Can Depend On Me
EXTD=
EXTT0=
EXTT1=
EXTT2=
EXTT3=
EXTT4=
EXTT5=
EXTT6=
EXTT7=
EXTT8=
EXTT9=
EXTT10=
EXTT11=
EXTT12=
EXTT13=
EXTT14=
EXTT15=
EXTT16=
EXTT17=
EXTT18=
EXTT19=
EXTT20=
EXTT21=
EXTT22=
PLAYORDER=
